<svg width="80" height="115" viewBox="0 0 80 115" xmlns="http://www.w3.org/2000/svg">
    <title>Imported Layers</title>
    <path d="M45.494 47.84l9.715 2.25c15.4 3.552 24.286 9.473 24.167 23.21-.118 19.774-17.534 26.405-33.883 27.115v14.446H34.12v-14.445C16.468 99.232 4.383 89.995 0 82.655l10.663-10.54c2.724 3.907 9.714 12.078 23.457 14.328V61.576l-8.53-2.132C11.61 55.892 1.658 51.866 1.658 35.998 1.658 18 18.362 10.066 34.12 10.066V0h11.374v10.066c16.23.83 28.315 10.776 31.87 15.986L67.055 36.59C63.62 31.26 55.09 24.867 45.494 24.04v23.8zM34.12 24.04h-2.606c-5.805.235-15.757 2.722-15.164 10.774 0 8.17 11.847 9.828 17.77 10.895V24.04zm11.374 62.403c9.833-.712 19.193-3.79 19.193-11.842 0-4.498-4.503-7.577-11.966-9.234l-7.226-1.66v22.737z"
          fill="#FFF" fill-rule="evenodd"/>
</svg>