<?xml version="1.0" encoding="UTF-8" standalone="no"?>
<svg width="365px" height="57px" viewBox="0 0 365 57" version="1.1" xmlns="http://www.w3.org/2000/svg" xmlns:xlink="http://www.w3.org/1999/xlink">
    <!-- Generator: Sketch 3.7.1 (28215) - http://www.bohemiancoding.com/sketch -->
    <title>GEHAtotal Logo</title>
    <desc>Created with Sketch.</desc>
    <defs>
        <polygon id="path-1" points="0.189413606 35.9047619 36.2373768 35.9047619 36.2373768 0.0723619048 0.189413606 0.0723619048"></polygon>
        <polygon id="path-3" points="0 56.6190476 364.602779 56.6190476 364.602779 0.686333333 0 0.686333333"></polygon>
    </defs>
    <g id="Page-1" stroke="none" stroke-width="1" fill="none" fill-rule="evenodd">
        <g id="GEHAtotal-Logo" transform="translate(0.000000, -1.000000)">
            <polygon id="Fill-1" fill="#512772" points="61.2398659 7.53157619 61.2398659 56.6561952 97.3455917 56.6561952 97.3455917 51.9609571 66.276211 51.9609571 66.276211 34.4781 96.624935 34.4781 96.624935 29.6295762 66.276211 29.6295762 66.276211 12.2268143 97.3455917 12.2268143 97.3455917 7.53157619"></polygon>
            <polygon id="Fill-2" fill="#512772" points="140.16374 7.53157619 140.16374 29.6378619 114.130704 29.6378619 114.130704 7.53157619 109.094359 7.53157619 109.094359 56.6561952 114.130704 56.6561952 114.130704 34.4656714 140.16374 34.4656714 140.16374 56.6561952 145.200085 56.6561952 145.200085 7.53157619"></polygon>
            <polygon id="Fill-3" fill="#512772" points="150.964513 56.5709905 157.149233 56.5709905 180.108475 13.663419 203.117228 56.5709905 209.295071 56.5709905 180.108475 2.28437143"></polygon>
            <g id="Group-20" transform="translate(0.000000, 0.695171)">
                <path d="M179.656277,30.1078 L180.562599,30.1078 C180.711131,30.135419 180.858288,30.167181 181.00682,30.1920381 C182.479766,30.4406095 183.701031,31.1959905 184.649988,32.4347048 C185.543932,33.6043714 185.996405,34.9687524 186.008783,36.5029905 C186.01841,37.7955619 185.700716,38.9818 185.061202,40.0617048 C184.490453,41.0242286 183.725787,41.7630381 182.787833,42.2850381 C182.669557,42.3499429 182.640676,42.4120857 182.676433,42.5529429 C182.943241,43.594181 187.164034,55.3709429 187.283685,55.8749905 L172.936566,55.8749905 C172.969573,55.716181 175.289702,48.7548 177.536941,42.5722762 C177.583701,42.4410857 177.567197,42.3596095 177.431043,42.2836571 C176.282668,41.6346095 175.407978,40.6845143 174.824851,39.418181 C174.200465,38.0648476 174.065686,36.6424667 174.340746,35.1772762 C174.553917,34.0490381 175.036647,33.0547524 175.755929,32.2040857 C176.523345,31.295419 177.453048,30.6670857 178.549161,30.3480857 C178.91224,30.2431333 179.286321,30.1865143 179.656277,30.1078 L179.656277,30.1078 Z" id="Fill-4" fill="#512772"></path>
                <path d="M235.53619,26.0305381 L225.74406,26.0305381 L225.74406,46.131681 C225.74406,47.3952524 225.863711,48.4268238 226.107139,49.2277762 C226.347817,50.0287286 226.687516,50.6473952 227.12211,51.0851571 C227.55808,51.5215381 228.076568,51.8253476 228.681699,51.9952048 C229.285456,52.1650619 229.9511,52.2493 230.675883,52.2493 C231.498312,52.2493 232.344121,52.1277762 233.214685,51.8861095 C234.085249,51.6430619 234.882923,51.3268238 235.609081,50.9387762 L235.826378,55.3813 C234.037114,56.2071095 231.884771,56.6186333 229.370724,56.6186333 C228.452024,56.6186333 227.496191,56.4971095 226.505976,56.2554429 C225.514386,56.0110143 224.608063,55.5525381 223.785635,54.8717286 C222.963206,54.1923 222.286559,53.2698238 221.755693,52.1043 C221.222077,50.9387762 220.956644,49.4100619 220.956644,47.5167762 L220.956644,26.0305381 L213.776208,26.0305381 L213.776208,21.6612048 L220.956644,21.6612048 L220.956644,12.0470143 L225.74406,12.0470143 L225.74406,21.6612048 L235.53619,21.6612048 L235.53619,26.0305381 Z" id="Fill-6" fill="#A6A9AB"></path>
                <g id="Group-10" transform="translate(240.131579, 20.714286)">
                    <mask id="mask-2" fill="white">
                        <use xlink:href="#path-1"></use>
                    </mask>
                    <g id="Clip-9"></g>
                    <path d="M31.0153664,17.9888381 C31.0153664,16.0955524 30.7141759,14.3237905 30.1104196,12.6721714 C29.5025374,11.0219333 28.6457261,9.58988571 27.5344845,8.37602857 C26.4218676,7.16217143 25.0795757,6.20240952 23.5103595,5.49950476 C21.9356421,4.79521905 20.160131,4.44169524 18.1783251,4.44169524 C16.1965192,4.44169524 14.4182575,4.79521905 12.8462907,5.49950476 C11.2756992,6.20240952 9.94578502,7.16217143 8.85792347,8.37602857 C7.77006193,9.58988571 6.92287772,11.0219333 6.31912144,12.6721714 C5.71536516,14.3237905 5.41417467,16.0955524 5.41417467,17.9888381 C5.41417467,19.8821238 5.71536516,21.6552667 6.31912144,23.3055048 C6.92287772,24.9571238 7.77006193,26.3891714 8.85792347,27.6030286 C9.94578502,28.8168857 11.2756992,29.7752667 12.8462907,30.4795524 C14.4182575,31.1838381 16.1965192,31.535981 18.1783251,31.535981 C20.160131,31.535981 21.9356421,31.1838381 23.5103595,30.4795524 C25.0795757,29.7752667 26.4218676,28.8168857 27.5344845,27.6030286 C28.6457261,26.3891714 29.5025374,24.9571238 30.1104196,23.3055048 C30.7141759,21.6552667 31.0153664,19.8821238 31.0153664,17.9888381 M36.2373768,17.9888381 C36.2373768,20.5629333 35.7917799,22.9409333 34.8964603,25.1256 C34.0025159,27.3116476 32.7564949,29.2049333 31.1611481,30.8068381 C29.5644259,32.4087429 27.6678885,33.6598857 25.4687853,34.5575048 C23.2655563,35.4551238 20.8381534,35.9053143 18.1783251,35.9053143 C15.5680075,35.9053143 13.1612342,35.4551238 10.9607557,34.5575048 C8.76027724,33.6598857 6.86373986,32.4087429 5.26839297,30.8068381 C3.67029548,29.2049333 2.42702515,27.3116476 1.53308077,25.1256 C0.636385795,22.9409333 0.189413606,20.5629333 0.189413606,17.9888381 C0.189413606,15.4161238 0.636385795,13.0367429 1.53308077,10.8506952 C2.42702515,8.66602857 3.67029548,6.77274286 5.26839297,5.1708381 C6.86373986,3.56893333 8.76027724,2.31917143 10.9607557,1.42017143 C13.1612342,0.522552381 15.5680075,0.0723619048 18.1783251,0.0723619048 C20.8381534,0.0723619048 23.2655563,0.522552381 25.4687853,1.42017143 C27.6678885,2.31917143 29.5644259,3.56893333 31.1611481,5.1708381 C32.7564949,6.77274286 34.0025159,8.66602857 34.8964603,10.8506952 C35.7917799,13.0367429 36.2373768,15.4161238 36.2373768,17.9888381" id="Fill-8" fill="#A6A9AB" mask="url(#mask-2)"></path>
                </g>
                <path d="M302.624377,26.0305381 L292.833623,26.0305381 L292.833623,46.131681 C292.833623,47.3952524 292.953274,48.4268238 293.196702,49.2277762 C293.43738,50.0287286 293.775703,50.6473952 294.211673,51.0851571 C294.646267,51.5215381 295.164755,51.8253476 295.771262,51.9952048 C296.375018,52.1650619 297.039288,52.2493 297.765446,52.2493 C298.586499,52.2493 299.433683,52.1277762 300.304248,51.8861095 C301.173437,51.6430619 301.97111,51.3268238 302.697268,50.9387762 L302.914565,55.3813 C301.125301,56.2071095 298.974334,56.6186333 296.460287,56.6186333 C295.541587,56.6186333 294.584379,56.4971095 293.595539,56.2554429 C292.602573,56.0110143 291.696251,55.5525381 290.875197,54.8717286 C290.051393,54.1923 289.374746,53.2698238 288.843881,52.1043 C288.31164,50.9387762 288.044832,49.4100619 288.044832,47.5167762 L288.044832,26.0305381 L280.865771,26.0305381 L280.865771,21.6612048 L288.044832,21.6612048 L288.044832,12.0470143 L292.833623,12.0470143 L292.833623,21.6612048 L302.624377,21.6612048 L302.624377,26.0305381 Z" id="Fill-11" fill="#A6A9AB"></path>
                <g id="Group-15" transform="translate(307.389583, 20.714286)" fill="#A6A9AB">
                    <path d="M21.0552082,18.0616143 C19.8463204,18.0616143 18.3348667,18.1237571 16.5222226,18.2439 C14.7095784,18.3654238 12.9684498,18.6568048 11.3002121,19.1180429 C9.63197436,19.5806619 8.20441396,20.2946143 7.02165678,21.2654238 C5.836149,22.2376143 5.24477042,23.5729952 5.24477042,25.2715667 C5.24477042,26.3887571 5.47307006,27.348519 5.93379524,28.1494714 C6.39176982,28.9504238 7.00790379,29.6049952 7.78357245,30.1159476 C8.55511521,30.625519 9.41467711,30.9887095 10.3581323,31.208281 C11.3002121,31.4264714 12.2546696,31.5355667 13.2228802,31.5355667 C14.9626335,31.5355667 16.4740871,31.2441857 17.7558658,30.6614238 C19.0362692,30.0786619 20.1117531,29.2901381 20.9823174,28.2944714 C21.854257,27.2988048 22.493771,26.1346619 22.9063607,24.7979 C23.3161998,23.4639 23.5224947,22.044281 23.5224947,20.5376619 L23.5224947,18.0616143 L21.0552082,18.0616143 Z M23.5224947,14.1286619 L23.5224947,13.2559 C23.5224947,7.38132857 20.6206137,4.4426619 14.8182271,4.4426619 C10.8532399,4.4426619 7.39436282,5.77804286 4.44572167,8.44880476 L1.54384069,5.02542381 C4.73590977,1.72356667 9.52332574,0.0733285714 15.9060886,0.0733285714 C17.549571,0.0733285714 19.1325402,0.31637619 20.6563715,0.801090476 C22.1802028,1.28718571 23.496364,2.02737619 24.6103562,3.0216619 C25.7215979,4.01870952 26.6155422,5.26847143 27.2935647,6.77370952 C27.9702118,8.27894762 28.3085354,10.0755667 28.3085354,12.1635667 L28.3085354,27.3844238 C28.3085354,28.6949476 28.3690485,30.0662333 28.4900748,31.498281 C28.6097259,32.9317095 28.7445052,34.1096619 28.8889116,35.0307571 L24.2472773,35.0307571 C24.1028709,34.2063286 23.9942223,33.3073286 23.9213314,32.336519 C23.8484406,31.3657095 23.8126828,30.4183762 23.8126828,29.4959 L23.6669011,29.4959 C22.2640961,31.7786143 20.608236,33.4164238 18.6979457,34.4120905 C16.7876553,35.4063762 14.4551481,35.9049 11.6990488,35.9049 C10.1999729,35.9049 8.74903238,35.6977571 7.34760265,35.2862333 C5.94479763,34.8747095 4.6987767,34.2422333 3.61091515,33.3929476 C2.52305361,32.542281 1.65386461,31.498281 1.00059757,30.2609476 C0.347330523,29.0222333 0.02138465,27.5791381 0.02138465,25.9261381 C0.02138465,23.1587095 0.735164853,20.9864714 2.16134996,19.4094238 C3.58753507,17.8323762 5.37679912,16.6530429 7.52914213,15.8769476 C9.68010983,15.0994714 11.9768592,14.6147571 14.4193903,14.4200429 C16.8605461,14.2267095 19.0967824,14.1286619 21.1280991,14.1286619 L23.5224947,14.1286619 Z" id="Fill-13"></path>
                </g>
                <mask id="mask-4" fill="white">
                    <use xlink:href="#path-3"></use>
                </mask>
                <g id="Clip-17"></g>
                <polygon id="Fill-16" fill="#A6A9AB" mask="url(#mask-4)" points="347.883268 55.7449048 352.670684 55.7449048 352.670684 0.684952381 347.883268 0.684952381"></polygon>
                <path d="M24.9653909,28.9338524 L24.9653909,33.7699476 L45.2716813,33.7699476 C44.6734262,36.6754714 43.7093416,42.5956143 37.2440608,47.5090429 C33.7205446,50.1880905 29.6166523,51.4834238 25.1813129,51.4834238 C19.589347,51.4834238 14.8349382,49.4879476 10.9153359,45.5011381 C6.99573364,41.5143286 5.03730781,36.7417571 5.03730781,31.1820429 C5.03730781,25.5947095 7.00261014,20.8276619 10.9345901,16.8781381 C14.8693207,12.9286143 19.6182283,10.9538524 25.1813129,10.9538524 C29.3732244,10.9538524 33.1759262,12.1387095 36.5907937,14.5084238 C39.2258667,16.3381857 41.3025683,18.6471381 42.8250243,21.432519 L48.4238667,21.432519 C46.6648592,17.1957571 43.9197624,13.6826143 40.1803243,10.8986143 C35.7023506,7.56361429 30.5353521,5.89680476 24.6765781,5.89680476 C21.5601505,5.89680476 18.467103,6.5596619 15.3974355,7.88399524 C12.327768,9.20832857 9.65281139,11.0132333 7.37531618,13.3014714 C5.09644566,15.5897095 3.29617922,18.274281 1.97864273,21.3565667 C0.659730951,24.4388524 -0.000412589713,27.7269 -0.000412589713,31.2179476 C-0.000412589713,34.7089952 0.659730951,37.9970429 1.97864273,41.0793286 C3.29617922,44.1616143 5.09644566,46.8461857 7.37531618,49.1344238 C9.65281139,51.4226619 12.327768,53.2289476 15.3974355,54.553281 C18.467103,55.8776143 21.727937,56.5390905 25.1813129,56.5390905 C31.114353,56.5390905 36.4656415,54.6223286 41.2131738,50.7625667 C48.9918652,44.4378048 50.2873969,36.2473762 50.3932949,32.6638048 L50.283271,28.9338524 L24.9653909,28.9338524 Z" id="Fill-18" fill="#512772" mask="url(#mask-4)"></path>
                <path d="M360.8489,52.3764857 L361.269741,52.3764857 C361.323378,52.3764857 361.382516,52.3723429 361.44853,52.366819 C361.513169,52.3599143 361.573683,52.3461048 361.63007,52.3226286 C361.686457,52.2977714 361.735968,52.2604857 361.774476,52.2093905 C361.812985,52.1596762 361.832239,52.0892476 361.832239,51.9994857 C361.832239,51.9083429 361.812985,51.8379143 361.774476,51.7882 C361.735968,51.7371048 361.686457,51.699819 361.63007,51.6749619 C361.573683,51.6528667 361.513169,51.6376762 361.44853,51.6307714 C361.382516,51.6252476 361.323378,51.6211048 361.269741,51.6211048 L360.8489,51.6211048 L360.8489,52.3764857 Z M360.00034,50.9209619 L361.117083,50.9209619 C361.319252,50.9209619 361.514545,50.9361524 361.702961,50.9679143 C361.890001,50.9969143 362.057788,51.0493905 362.202194,51.1239619 C362.349351,51.1985333 362.467627,51.3034857 362.555646,51.4374381 C362.646416,51.5727714 362.690425,51.7440095 362.690425,51.9539143 C362.690425,52.1099619 362.66567,52.250819 362.61891,52.3806286 C362.570774,52.5090571 362.510261,52.6181524 362.43462,52.7079143 C362.361729,52.7976762 362.277836,52.8708667 362.185691,52.9274857 C362.09217,52.9841048 361.99865,53.0200095 361.903754,53.0310571 L362.797699,54.4216762 L361.858369,54.4216762 L361.063447,53.0766286 L360.858527,53.0766286 L360.858527,54.4216762 L360.00034,54.4216762 L360.00034,50.9209619 Z M358.810707,52.7079143 C358.810707,53.0669619 358.875346,53.4039143 359.001873,53.7187714 C359.131151,54.0322476 359.305814,54.3056762 359.525862,54.5390571 C359.74591,54.7724381 360.007217,54.9561048 360.308407,55.0914381 C360.608223,55.2267714 360.932793,55.2930571 361.277993,55.2930571 C361.624569,55.2930571 361.946389,55.2267714 362.248954,55.0914381 C362.54877,54.9561048 362.810076,54.7724381 363.030124,54.5390571 C363.250172,54.3056762 363.424835,54.0322476 363.552738,53.7187714 C363.682016,53.4039143 363.743904,53.0669619 363.743904,52.7079143 C363.743904,52.3488667 363.682016,52.0119143 363.552738,51.6984381 C363.424835,51.383581 363.250172,51.1101524 363.030124,50.8767714 C362.810076,50.6433905 362.54877,50.4583429 362.248954,50.3257714 C361.946389,50.1904381 361.624569,50.1227714 361.277993,50.1227714 C360.932793,50.1227714 360.608223,50.1904381 360.308407,50.3257714 C360.007217,50.4583429 359.74591,50.6433905 359.525862,50.8767714 C359.305814,51.1101524 359.131151,51.383581 359.001873,51.6984381 C358.875346,52.0119143 358.810707,52.3488667 358.810707,52.7079143 L358.810707,52.7079143 Z M357.95252,52.7079143 C357.95252,52.2466762 358.040539,51.815819 358.216578,51.4112 C358.392616,51.006581 358.630543,50.6544381 358.930358,50.3520095 C359.231548,50.049581 359.583625,49.8106762 359.986587,49.6339143 C360.388175,49.4571524 360.820019,49.3687714 361.277993,49.3687714 C361.737343,49.3687714 362.167812,49.4571524 362.569399,49.6339143 C362.972362,49.8106762 363.323063,50.049581 363.625629,50.3520095 C363.925444,50.6544381 364.163371,51.006581 364.339409,51.4112 C364.515447,51.815819 364.603466,52.2466762 364.603466,52.7079143 C364.603466,53.1691524 364.515447,53.6013905 364.339409,54.0060095 C364.163371,54.4092476 363.925444,54.7627714 363.625629,55.063819 C363.323063,55.3662476 362.972362,55.6065333 362.569399,55.7819143 C362.167812,55.9586762 361.737343,56.0470571 361.277993,56.0470571 C360.820019,56.0470571 360.388175,55.9586762 359.986587,55.7819143 C359.583625,55.6065333 359.231548,55.3662476 358.930358,55.063819 C358.630543,54.7627714 358.392616,54.4092476 358.216578,54.0060095 C358.040539,53.6013905 357.95252,53.1691524 357.95252,52.7079143 L357.95252,52.7079143 Z" id="Fill-19" fill="#A9A8AA" mask="url(#mask-4)"></path>
            </g>
        </g>
    </g>
</svg>