<svg width="144" height="110" viewBox="0 0 144 110" xmlns="http://www.w3.org/2000/svg">
    <title>Life Insurance Icon</title>
    <g fill="#fff" fill-rule="evenodd">
        <path d="M140.368 75.254c-.355-1.468-.83-2.882-1.412-4.232s-1.272-2.637-2.057-3.85c-1.18-1.82-2.573-3.477-4.144-4.937-4.707-4.38-10.994-6.998-17.777-6.998h-8.603c-4.383 0-8.56 1.1-12.242 3.06 9.453 4.733 16.667 13.46 19.297 24.336l3.137 12.983c9.682-.594 18.787-3.332 26.847-7.746l-3.05-12.616zM95.31 42.3c.338.398.683.792 1.052 1.16.45.453.922.882 1.413 1.29.983.81 2.043 1.53 3.17 2.144.565.308 1.145.587 1.74.84 2.38 1.01 4.995 1.566 7.742 1.566 2.746 0 5.362-.557 7.742-1.566.594-.253 1.173-.532 1.737-.84 1.127-.614 2.19-1.333 3.17-2.145.492-.408.963-.837 1.414-1.29.9-.9 1.715-1.888 2.43-2.95.357-.528.69-1.077.996-1.64.613-1.132 1.12-2.327 1.506-3.576.58-1.872.894-3.863.894-5.928 0-11.008-8.904-19.933-19.89-19.933-4.57 0-8.766 1.56-12.125 4.157 1.6 3.595 2.495 7.57 2.495 11.753 0 6.328-2.04 12.184-5.486 16.957M49.82 58.558c-3.793-2.124-8.143-3.322-12.723-3.322h-8.6c-1.48 0-2.937.125-4.36.366-1.42.24-2.808.596-4.15 1.06-1.342.463-2.638 1.034-3.876 1.703-1.857 1.003-3.585 2.228-5.147 3.644-3.644 3.303-6.376 7.652-7.71 12.667L.306 85.764c6.22 3.944 13.157 6.856 20.573 8.484 1.483.326 2.985.6 4.505.822.714.104 1.434.194 2.156.274l3.595-13.525c2.737-10.294 9.69-18.59 18.686-23.262M15.057 38.868c.482.89 1.045 1.72 1.652 2.522.548.726 1.13 1.428 1.772 2.072.642.643 1.343 1.225 2.067 1.777.797.606 1.63 1.172 2.516 1.655.714.388 1.463.718 2.227 1.018 2.25.884 4.69 1.387 7.253 1.387 2.747 0 5.362-.558 7.742-1.567.595-.25 1.175-.532 1.74-.838 1.126-.614 2.187-1.334 3.17-2.147.49-.405.962-.836 1.412-1.286.518-.52 1-1.074 1.458-1.648-3.237-4.682-5.14-10.357-5.14-16.47 0-4.02.822-7.848 2.3-11.33-3.442-2.86-7.86-4.58-12.682-4.58-2.06 0-4.046.313-5.915.896-1.245.388-2.437.895-3.564 1.51-.565.306-1.112.64-1.64.998-1.06.716-2.044 1.53-2.944 2.434-.45.45-.878.923-1.284 1.415-.81.984-1.53 2.048-2.14 3.178-.307.566-.587 1.147-.84 1.743-1.006 2.384-1.562 5.007-1.562 7.76 0 2.567.5 5.013 1.383 7.267.3.766.628 1.516 1.017 2.233"/>
        <path d="M86.38 94.216c-1.4.95-2.386 1.525-2.386 1.525s-6.56-3.82-10.028-8.24l-.068-.087c-.623-.804-1.154-1.626-1.51-2.45-.262-.607-.423-1.233-.49-1.86-.112-1.04.038-2.08.412-3.033.3-.76.747-1.464 1.318-2.065.43-.45.93-.843 1.495-1.158.188-.105.383-.202.584-.29.382-.166.772-.287 1.162-.374.005 0 .01-.003.015-.004.015-.004.03-.01.044-.013.376-.08.755-.12 1.132-.13.034 0 .067-.004.102-.004.364-.003.726.028 1.083.085.092.016.182.04.274.06.268.055.532.127.79.216.1.035.203.07.303.11.01.005.02.012.03.015.283.115.56.247.823.402.036.022.076.038.112.06.305.188.59.407.86.646.077.066.146.14.22.21.196.19.382.395.555.613.067.086.135.168.2.257.215.304.417.623.58.97.167-.347.368-.666.585-.97.063-.09.13-.17.198-.255.174-.22.36-.423.556-.615.073-.07.142-.143.217-.21.27-.238.556-.457.86-.645.037-.022.075-.037.11-.06.275-.16.562-.3.858-.418.1-.04.2-.075.3-.11.258-.09.523-.16.792-.217.09-.02.18-.043.27-.06.358-.056.72-.087 1.085-.084.034 0 .07.005.103.005.377.01.755.05 1.132.13.02.004.04.01.06.016.39.086.78.207 1.16.373 3.235 1.402 4.72 5.165 3.32 8.407-1.02 2.366-3.385 4.733-5.715 6.643-1.252 1.028-2.488 1.916-3.506 2.61zm26.39 1.522l-2.954-12.227c-.45-1.86-1.05-3.652-1.79-5.364-.737-1.712-1.612-3.343-2.608-4.882-1.992-3.076-4.47-5.783-7.312-8.024-1.422-1.12-2.934-2.125-4.523-3.002-1.03-.568-2.106-1.06-3.197-1.518-.59-.248-1.178-.5-1.783-.712-.755-.267-1.525-.494-2.302-.704-2.777-.756-5.682-1.168-8.67-1.168H66.73c-3.212 0-6.33.488-9.298 1.36-1.383.406-2.742.878-4.05 1.456-8.987 3.97-16 11.86-18.65 21.827l-3.42 12.863-.317 1.192c1.452.92 2.94 1.792 4.453 2.622 11.622 6.38 24.95 10.024 39.136 10.024 14.165 0 27.486-3.618 39.1-9.976l-.014-.05-.897-3.716zM52.66 41.695c.964 1.137 2.015 2.196 3.163 3.145 1.246 1.03 2.59 1.944 4.02 2.72 3.573 1.946 7.667 3.05 12.018 3.05 4.353 0 8.447-1.104 12.02-3.05 1.428-.776 2.774-1.69 4.02-2.72.976-.806 1.87-1.705 2.714-2.65.886-.988 1.7-2.04 2.42-3.16 2.547-3.947 4.04-8.64 4.04-13.688 0-3.176-.61-6.205-1.677-9.005-.48-1.26-1.054-2.47-1.72-3.625-1.513-2.617-3.463-4.952-5.777-6.868-1.246-1.03-2.592-1.942-4.02-2.72C80.306 1.18 76.212.074 71.86.074c-4.35 0-8.444 1.105-12.016 3.05-1.43.778-2.775 1.69-4.02 2.72-2.465 2.038-4.53 4.538-6.078 7.364-.653 1.193-1.19 2.453-1.647 3.753-.924 2.627-1.45 5.44-1.45 8.382 0 4.768 1.34 9.212 3.63 13.016.71 1.176 1.496 2.297 2.38 3.337"/>
    </g>
</svg>